<svg width="160" height="53" viewBox="0 0 160 53" fill="none" xmlns="http://www.w3.org/2000/svg">
<g clip-path="url(#clip0_2334_1294)">
<path d="M42.2389 26.381C42.2389 34.2378 42.2389 42.0946 42.2389 49.9514C42.2389 51.7464 41.9719 52.0097 40.1398 51.9893C37.6587 51.9634 35.1776 51.9059 32.6984 51.9059C31.6692 51.9059 31.074 51.4701 30.5307 50.5837C28.6875 47.5741 26.7552 44.6165 24.8119 41.67C20.8325 35.6322 16.8253 29.6131 12.8273 23.5865C12.7012 23.3974 12.5733 23.1971 12.4027 23.0543C12.0059 22.7205 11.711 22.8374 11.6072 23.3306C11.5553 23.5772 11.5849 23.8405 11.5849 24.0964C11.5849 32.6356 11.5849 41.1767 11.5849 49.7159C11.5849 51.5628 11.1584 51.9967 9.33749 51.9967C6.82858 51.9986 4.31781 52.0004 1.8089 51.9949C0.420006 51.9912 0.0027815 51.5943 0.0027815 50.2221C-0.000927167 34.2526 -0.000927167 18.2831 0.0027815 2.31356C0.0027815 0.956188 0.442258 0.537113 1.81632 0.54453C4.12682 0.555656 6.43732 0.635391 8.74411 0.577907C10.2257 0.54082 11.1807 0.974731 11.9781 2.35992C13.6674 5.29162 15.5866 8.09352 17.452 10.9233C21.4166 16.9369 25.409 22.9319 29.3902 28.9344C29.5163 29.1235 29.6424 29.3238 29.8112 29.4703C30.234 29.8375 30.5455 29.7336 30.6493 29.1829C30.7013 28.9066 30.6716 28.6155 30.6716 28.3317C30.6716 19.8482 30.6716 11.3665 30.6734 2.88284C30.6734 0.984004 31.0833 0.572344 32.9691 0.572344C35.4502 0.572344 37.9313 0.568637 40.4124 0.5742C41.8662 0.576054 42.2408 0.943212 42.2408 2.38774C42.2389 10.3837 42.2389 18.3833 42.2389 26.381Z" fill="black"/>
<path d="M154.403 52.0267C153.12 52.0267 151.836 52.0156 150.553 52.0286C149.192 52.0434 148.285 51.4352 147.812 50.1501C147.163 48.3867 146.492 46.6325 145.826 44.8764C145.335 43.5821 144.823 43.2038 143.475 43.1982C138.741 43.1778 134.009 43.163 129.275 43.1593C128.027 43.1574 127.393 43.6043 126.944 44.7781C126.282 46.5064 125.642 48.242 124.984 49.9703C124.427 51.4315 123.708 51.9488 122.15 51.947C119.584 51.9451 117.018 51.9192 114.451 51.8932C112.901 51.8765 112.439 51.1682 113.008 49.6717C116.246 41.1585 119.487 32.6452 122.729 24.1338C125.464 16.952 128.216 9.77575 130.919 2.58279C131.392 1.32555 132.136 0.665412 133.51 0.693227C135.587 0.735877 137.664 0.726607 139.742 0.735879C140.89 0.741442 141.545 1.31443 141.947 2.38623C147.877 18.1814 153.832 33.9674 159.775 49.7589C160.35 51.2868 159.821 52.023 158.167 52.0267C156.912 52.0286 155.656 52.0267 154.403 52.0267ZM136.392 17.2042C136.217 17.6233 136.104 17.8718 136.01 18.1277C134.239 22.9007 132.466 27.6738 130.699 32.4487C130.189 33.8283 130.615 34.4514 132.084 34.4551C134.877 34.4625 137.669 34.4606 140.462 34.4569C142.17 34.4551 142.665 33.73 142.062 32.1279C140.308 27.4698 138.554 22.8117 136.796 18.1555C136.698 17.894 136.579 17.6418 136.392 17.2042Z" fill="black"/>
<path d="M48.5669 39.9771C48.5669 36.9323 48.5503 33.8856 48.5818 30.8408C48.5892 30.2289 48.693 29.5854 48.9081 29.0143C52.27 20.0931 55.6579 11.1793 59.0421 2.26553C59.5594 0.902592 60.0805 0.544702 61.5417 0.540994C63.5945 0.535431 65.6472 0.531724 67.7 0.54285C69.0796 0.550267 69.647 0.945243 70.1365 2.24328C76.1835 18.3055 82.2286 34.3696 88.2701 50.4355C88.6984 51.5741 88.4184 51.9913 87.2279 51.995C84.2628 52.0024 81.2978 52.0024 78.3327 51.995C77.1107 51.9913 76.5618 51.6075 76.139 50.48C75.4195 48.5608 74.7186 46.636 73.9991 44.7168C73.5411 43.4948 73.0608 43.1591 71.7609 43.1573C66.8581 43.1517 61.9534 43.1517 57.0505 43.1573C55.8582 43.1591 55.3724 43.5096 54.9514 44.65C54.2616 46.5192 53.5774 48.3902 52.9024 50.2649C52.6261 51.0289 52.1644 51.6 51.3744 51.8745C50.2377 52.2695 49.0528 51.6965 48.7338 50.5468C48.6133 50.1147 48.5818 49.6493 48.5799 49.1987C48.5595 46.1242 48.5669 43.0497 48.5669 39.9771ZM64.555 34.4215C64.555 34.4085 64.555 34.3974 64.555 34.3844C66.0366 34.3844 67.5164 34.3993 68.998 34.3789C70.0067 34.3659 70.3516 33.9041 70.0494 32.951C68.5084 28.1001 66.9638 23.251 65.3765 18.4149C65.2578 18.0515 64.7701 17.5193 64.5272 17.5545C64.1674 17.6083 63.6964 18.044 63.5778 18.4149C62.022 23.2306 60.5163 28.0611 59.0105 32.8935C58.6768 33.9653 59.005 34.4067 60.112 34.4159C61.5936 34.4326 63.0752 34.4215 64.555 34.4215Z" fill="black"/>
<path d="M83.2354 0.573004C84.9172 0.573004 86.601 0.608239 88.2828 0.558172C89.1414 0.532211 89.5531 0.865987 89.8164 1.67818C93.0355 11.558 96.2806 21.4286 99.5331 31.2974C99.7167 31.8555 99.7408 32.753 100.535 32.6418C100.906 32.5899 101.291 31.8129 101.462 31.2974C104.676 21.5065 107.858 11.7045 111.049 1.90627C111.475 0.597111 111.557 0.541478 112.916 0.541478C116.195 0.541478 119.475 0.539626 122.754 0.543334C123.831 0.545189 123.912 0.667576 123.538 1.68004C117.573 17.7756 111.605 33.8694 105.636 49.965C104.978 51.7414 104.592 51.9992 102.675 51.9992C101.136 51.9992 99.5943 51.9992 98.0552 51.9992C96.568 51.9992 96.0469 51.6431 95.5147 50.2227C94.1537 46.5975 92.8019 42.9704 91.4463 39.3433C86.8476 27.0491 82.2489 14.7567 77.6501 2.46442C77.5296 2.14362 77.4183 1.82096 77.2904 1.50387C77.0345 0.867841 77.2588 0.602674 77.9301 0.608237C79.6973 0.621217 81.4663 0.611944 83.2335 0.611944C83.2354 0.598963 83.2354 0.585985 83.2354 0.573004Z" fill="black"/>
</g>
<defs>
<clipPath id="clip0_2334_1294">
<rect width="160" height="53" fill="white"/>
</clipPath>
</defs>
</svg>
