<svg width="35" height="40" viewBox="0 0 35 40" fill="none" xmlns="http://www.w3.org/2000/svg">
<path d="M22.6078 3.97921L24.3763 0.857139C24.3989 0.817134 24.4133 0.773161 24.4185 0.727731C24.4238 0.6823 24.4198 0.636303 24.4069 0.592364C24.394 0.548426 24.3724 0.507406 24.3433 0.471649C24.3141 0.435891 24.2781 0.406095 24.2372 0.383962C24.1963 0.361828 24.1514 0.347792 24.105 0.342653C24.0585 0.337514 24.0115 0.341373 23.9666 0.354011C23.9217 0.366648 23.8798 0.387816 23.8433 0.416307C23.8067 0.444797 23.7763 0.480051 23.7536 0.520057L21.9667 3.67458C20.4412 3.02015 18.7937 2.68227 17.1281 2.68227C15.4625 2.68227 13.8149 3.02015 12.2895 3.67458L10.5025 0.520057C10.4568 0.438784 10.38 0.378597 10.289 0.352736C10.198 0.326875 10.1002 0.337459 10.0171 0.382159C9.93404 0.426859 9.87253 0.502014 9.8461 0.59109C9.81967 0.680166 9.83049 0.775867 9.87617 0.857139L11.6447 3.97921C9.962 4.79126 8.5403 6.04101 7.53553 7.59142C6.53075 9.14183 5.98168 10.933 5.94854 12.7686H28.3076C28.2741 10.9327 27.7245 9.14119 26.7191 7.59074C25.7136 6.0403 24.2912 4.79076 22.6078 3.97921ZM11.9689 8.76507C11.7841 8.76507 11.6035 8.71142 11.4498 8.61092C11.2962 8.51042 11.1765 8.36758 11.1058 8.20048C11.0352 8.03338 11.0168 7.84953 11.053 7.6722C11.0892 7.49487 11.1783 7.33203 11.3091 7.20429C11.44 7.07655 11.6066 6.98965 11.7879 6.95459C11.9692 6.91953 12.157 6.93789 12.3276 7.00734C12.4983 7.07678 12.644 7.1942 12.7464 7.34473C12.8488 7.49526 12.9033 7.67213 12.9029 7.85296C12.9025 8.09503 12.8038 8.32703 12.6287 8.49803C12.4536 8.66903 12.2163 8.76507 11.9689 8.76507ZM22.2891 8.76507C22.1043 8.76507 21.9236 8.71142 21.77 8.61092C21.6163 8.51042 21.4966 8.36758 21.426 8.20048C21.3554 8.03338 21.337 7.84953 21.3732 7.6722C21.4093 7.49487 21.4985 7.33203 21.6293 7.20429C21.7601 7.07655 21.9267 6.98965 22.108 6.95459C22.2893 6.91953 22.4772 6.93789 22.6478 7.00734C22.8184 7.07678 22.9642 7.1942 23.0666 7.34473C23.169 7.49526 23.2235 7.67213 23.2231 7.85296C23.2226 8.09503 23.124 8.32703 22.9489 8.49803C22.7738 8.66903 22.5365 8.76507 22.2891 8.76507ZM5.94486 29.4894C5.94437 29.8374 6.0141 30.1821 6.15005 30.5037C6.28599 30.8253 6.48548 31.1175 6.73706 31.3635C6.98865 31.6095 7.2874 31.8045 7.61616 31.9373C7.94493 32.0701 8.29725 32.1381 8.65293 32.1374H10.4454V37.5451C10.4454 38.1955 10.7095 38.8193 11.1795 39.2792C11.6495 39.7391 12.287 39.9975 12.9518 39.9975C13.6165 39.9975 14.254 39.7391 14.724 39.2792C15.194 38.8193 15.4581 38.1955 15.4581 37.5451V32.1374H18.7999V37.5451C18.7999 38.1953 19.0639 38.8188 19.5337 39.2786C20.0036 39.7383 20.6409 39.9966 21.3053 39.9966C21.9698 39.9966 22.6071 39.7383 23.0769 39.2786C23.5468 38.8188 23.8108 38.1953 23.8108 37.5451V32.1374H25.6051C25.9603 32.1376 26.3121 32.0693 26.6403 31.9364C26.9685 31.8035 27.2667 31.6086 27.5179 31.3628C27.7691 31.1171 27.9683 30.8253 28.1041 30.5041C28.2399 30.1829 28.3097 29.8387 28.3095 29.4912V13.6338H5.94486V29.4894ZM2.50543 13.212C1.84093 13.213 1.20395 13.4718 0.734249 13.9318C0.264549 14.3917 0.00048717 15.0152 0 15.6654V25.8842C-4.90274e-09 26.2061 0.0648046 26.5249 0.190714 26.8223C0.316623 27.1198 0.501172 27.39 0.733822 27.6177C0.966473 27.8453 1.24267 28.0259 1.54664 28.1491C1.85061 28.2723 2.17641 28.3357 2.50543 28.3357C2.83444 28.3357 3.16024 28.2723 3.46421 28.1491C3.76818 28.0259 4.04438 27.8453 4.27703 27.6177C4.50968 27.39 4.69423 27.1198 4.82014 26.8223C4.94605 26.5249 5.01085 26.2061 5.01085 25.8842V15.6654C5.00988 15.0155 4.7456 14.3925 4.27595 13.9329C3.80631 13.4734 3.16961 13.2148 2.50543 13.2138M31.7452 13.2138C31.0807 13.2148 30.4437 13.4736 29.974 13.9336C29.5043 14.3935 29.2403 15.017 29.2398 15.6672V25.886C29.2398 26.2079 29.3046 26.5267 29.4305 26.8242C29.5564 27.1216 29.741 27.3918 29.9736 27.6195C30.2063 27.8471 30.4825 28.0277 30.7864 28.1509C31.0904 28.2741 31.4162 28.3375 31.7452 28.3375C32.0742 28.3375 32.4 28.2741 32.704 28.1509C33.008 28.0277 33.2842 27.8471 33.5168 27.6195C33.7495 27.3918 33.934 27.1216 34.0599 26.8242C34.1858 26.5267 34.2506 26.2079 34.2506 25.886V15.6654C34.2497 15.0155 33.9854 14.3925 33.5157 13.9329C33.0461 13.4734 32.4094 13.2148 31.7452 13.2138Z" fill="white"/>
</svg>
