<svg width="46" height="46" viewBox="0 0 46 46" fill="none" xmlns="http://www.w3.org/2000/svg">
<path d="M40.5825 30.7072V14.3409L26.9439 6.66949M19.3063 6.66949L5.66772 14.3409V30.7072M8.94099 35.8223L23.1251 43.8003L31.8538 38.8904L37.3093 35.8223M23.1251 16.5231L26.3984 18.4325L29.6716 20.3419V27.9795L26.3984 29.8889L23.1251 31.7983L19.8519 29.8889L16.5786 27.9795V20.3419L19.8519 18.4325L23.1251 16.5231ZM23.1251 16.5231V8.88549M29.6716 27.434L37.3093 31.7983M16.5786 27.434L8.94099 31.7983" stroke="white" stroke-width="3.60533" strokeLinecap="round" stroke-linejoin="round"/>
<path d="M23.1253 8.8859C24.9332 8.8859 26.3988 7.42031 26.3988 5.61241C26.3988 3.80452 24.9332 2.33893 23.1253 2.33893C21.3174 2.33893 19.8518 3.80452 19.8518 5.61241C19.8518 7.42031 21.3174 8.8859 23.1253 8.8859Z" stroke="white" stroke-width="3.60533" strokeLinecap="round" stroke-linejoin="round"/>
<path d="M5.66789 37.2539C7.47579 37.2539 8.94138 35.7884 8.94138 33.9805C8.94138 32.1726 7.47579 30.707 5.66789 30.707C3.86 30.707 2.39441 32.1726 2.39441 33.9805C2.39441 35.7884 3.86 37.2539 5.66789 37.2539Z" stroke="white" stroke-width="3.60533" strokeLinecap="round" stroke-linejoin="round"/>
<path d="M40.5827 37.2539C42.3906 37.2539 43.8562 35.7884 43.8562 33.9805C43.8562 32.1726 42.3906 30.707 40.5827 30.707C38.7748 30.707 37.3092 32.1726 37.3092 33.9805C37.3092 35.7884 38.7748 37.2539 40.5827 37.2539Z" stroke="white" stroke-width="3.60533" strokeLinecap="round" stroke-linejoin="round"/>
</svg>
