<svg width="37" height="40" viewBox="0 0 37 40" fill="none" xmlns="http://www.w3.org/2000/svg">
<path d="M26.375 2.16074C26.4857 1.81057 26.455 1.43057 26.2897 1.103C26.1245 0.775426 25.8379 0.526643 25.492 0.410503C25.1461 0.294363 24.7687 0.32021 24.4416 0.482449C24.1144 0.644689 23.8639 0.930266 23.7441 1.27736L22.3574 5.46876C22.2468 5.81894 22.2774 6.19894 22.4427 6.52651C22.608 6.85408 22.8946 7.10286 23.2405 7.21901C23.5864 7.33514 23.9637 7.3093 24.2909 7.14706C24.618 6.98482 24.8686 6.69924 24.9884 6.35215L26.375 2.16074ZM34.8207 2.12906C35.0804 2.39114 35.2263 2.7464 35.2263 3.11681C35.2263 3.48721 35.0804 3.84248 34.8207 4.10456L30.1985 8.76374C30.0716 8.90107 29.9185 9.01121 29.7484 9.08761C29.5783 9.16401 29.3947 9.20508 29.2085 9.2084C29.0223 9.21171 28.8374 9.17718 28.6647 9.10688C28.492 9.03658 28.3352 8.93195 28.2035 8.79922C28.0718 8.66649 27.968 8.50839 27.8983 8.33434C27.8285 8.1603 27.7943 7.97388 27.7976 7.7862C27.8009 7.59852 27.8416 7.41344 27.9174 7.24198C27.9932 7.07052 28.1025 6.91621 28.2387 6.78825L32.8609 2.12906C33.1209 1.86731 33.4734 1.72028 33.8408 1.72028C34.2083 1.72028 34.5607 1.86731 34.8207 2.12906ZM18.3472 4.96184C17.8703 4.44685 17.276 4.05684 16.6158 3.8256C15.9556 3.59436 15.2494 3.52886 14.5585 3.63479C13.8675 3.74071 13.2126 4.01486 12.6505 4.43348C12.0884 4.8521 11.636 5.40256 11.3325 6.03718L0.427766 28.8541C0.121416 29.4959 0.0256255 30.2192 0.154263 30.9195C0.2829 31.6198 0.62929 32.2606 1.14329 32.7492L3.80383 35.2801C4.28068 35.7333 4.87966 36.0344 5.52564 36.1458C6.17163 36.2572 6.83586 36.1739 7.43504 35.9063L10.0549 34.7359C10.8632 36.5216 12.3376 37.914 14.1581 38.6107C15.9786 39.3075 17.9982 39.2523 19.7786 38.4573C21.559 37.6623 22.9565 36.1916 23.6678 34.3644C24.379 32.5372 24.3467 30.5009 23.5777 28.6976L29.9009 25.8723C30.5276 25.5924 31.0789 25.1654 31.5086 24.6271C31.9384 24.0887 32.2342 23.4546 32.3713 22.7776C32.5085 22.1005 32.483 21.4003 32.2971 20.7352C32.1111 20.0701 31.77 19.4595 31.3023 18.9543L18.3472 4.96184ZM21.041 29.827C21.49 30.9479 21.4892 32.2009 21.0388 33.3212C20.5883 34.4416 19.7235 35.3416 18.6271 35.8312C17.5306 36.3208 16.2882 36.3617 15.1624 35.9452C14.0365 35.5287 13.1154 34.6874 12.5934 33.5991L21.041 29.827ZM29.6808 13.3651C29.6808 12.9944 29.8269 12.6389 30.087 12.3768C30.347 12.1147 30.6997 11.9674 31.0675 11.9674H34.7653C35.133 11.9674 35.4857 12.1147 35.7458 12.3768C36.0059 12.6389 36.1519 12.9944 36.1519 13.3651C36.1519 13.7359 36.0059 14.0914 35.7458 14.3535C35.4857 14.6156 35.133 14.7629 34.7653 14.7629H31.0675C30.6997 14.7629 30.347 14.6156 30.087 14.3535C29.8269 14.0914 29.6808 13.7359 29.6808 13.3651Z" fill="white"/>
</svg>
