<svg width="35" height="35" viewBox="0 0 35 35" fill="none" xmlns="http://www.w3.org/2000/svg">
<path d="M30.5809 0.338867H3.66971C1.64403 0.338867 0 1.9829 0 4.00858V30.9198C0 32.9455 1.64403 34.5895 3.66971 34.5895H30.5809C32.6066 34.5895 34.2506 32.9455 34.2506 30.9198V4.00858C34.2506 1.9829 32.6066 0.338867 30.5809 0.338867ZM9.71006 27.288C9.50729 27.6387 9.17352 27.8945 8.78216 27.9991C8.3908 28.1037 7.97392 28.0486 7.62322 27.8458C7.27251 27.643 7.01672 27.3093 6.91212 26.9179C6.80751 26.5265 6.86265 26.1097 7.06542 25.759L8.15899 23.8703C9.38957 23.496 10.3987 23.7859 11.1865 24.7412L9.71006 27.288ZM20.329 23.1681H6.422C5.58041 23.1681 4.89295 22.4795 4.89295 21.6391C4.89295 20.7987 5.58163 20.1101 6.422 20.1101H10.3217L15.321 11.4556L13.7541 8.74985C13.5524 8.39889 13.4979 7.98238 13.6024 7.59134C13.7069 7.20029 13.962 6.86653 14.3119 6.663C14.6628 6.46133 15.0793 6.4068 15.4704 6.51132C15.8614 6.61585 16.1952 6.87092 16.3987 7.2208L17.0788 8.39755L17.759 7.2208C17.8594 7.04715 17.993 6.89498 18.1522 6.77297C18.3114 6.65096 18.4931 6.5615 18.6869 6.5097C18.8806 6.45791 19.0827 6.44479 19.2816 6.47109C19.4804 6.49739 19.6722 6.56261 19.8458 6.663C20.0195 6.7634 20.1716 6.89702 20.2936 7.05623C20.4156 7.21544 20.5051 7.39712 20.5569 7.5909C20.6087 7.78468 20.6218 7.98677 20.5955 8.18562C20.5692 8.38447 20.504 8.5762 20.4036 8.74985L13.8446 20.1113H18.592C20.1357 20.1113 21.0005 21.9229 20.3278 23.1694L20.329 23.1681ZM27.8286 23.1681H25.6109L27.1094 25.7602C27.5302 26.4941 27.277 27.4275 26.5516 27.847C25.8176 28.2678 24.8843 28.0146 24.4647 27.2892C21.9498 22.9394 20.0684 19.6672 18.8073 17.496C17.5302 15.2783 18.4403 13.0618 19.3504 12.3131C20.3522 14.0489 21.8507 16.6483 23.8531 20.1113H27.8286C28.2342 20.1113 28.6231 20.2724 28.9098 20.5591C29.1966 20.8459 29.3577 21.2348 29.3577 21.6403C29.3577 22.0458 29.1966 22.4348 28.9098 22.7215C28.6231 23.0083 28.2342 23.1681 27.8286 23.1681Z" fill="white"/>
</svg>
