<svg width="39" height="43" viewBox="0 0 39 43" fill="none" xmlns="http://www.w3.org/2000/svg">
<path fill-rule="evenodd" clip-rule="evenodd" d="M38.0534 11.6864L19.1254 0.338867L0.197388 11.6864V31.3539L3.12686 33.1101L9.11684 30.621C9.92291 30.2856 10.6132 29.7107 11.0993 28.9699C11.5854 28.229 11.8452 27.356 11.8454 26.4625V11.0492H14.7574V26.4625C14.7572 27.9519 14.3241 29.4073 13.5138 30.6422C12.7034 31.8772 11.5526 32.8355 10.2088 33.3943L6.30676 35.0158L19.1254 42.7015L38.0534 31.3569V11.6864ZM17.6694 17.0326C17.6694 15.4457 18.283 13.9238 19.3752 12.8017C20.4674 11.6796 21.9488 11.0492 23.4934 11.0492H26.8917C29.8386 11.0492 32.2294 13.5024 32.2294 16.533V17.0326H29.3174V16.533C29.3174 16.2057 29.2546 15.8817 29.1327 15.5793C29.0108 15.277 28.8321 15.0022 28.6069 14.7708C28.3817 14.5394 28.1142 14.3558 27.82 14.2306C27.5257 14.1054 27.2102 14.0409 26.8917 14.0409H23.4934C22.7211 14.0409 21.9804 14.3561 21.4343 14.9172C20.8882 15.4782 20.5814 16.2392 20.5814 17.0326C20.5814 17.8261 20.8882 18.587 21.4343 19.1481C21.9804 19.7091 22.7211 20.0243 23.4934 20.0243H26.4054C27.95 20.0243 29.4313 20.6547 30.5236 21.7768C31.6158 22.8989 32.2294 24.4209 32.2294 26.0078C32.2294 27.5947 31.6158 29.1166 30.5236 30.2387C29.4313 31.3608 27.95 31.9912 26.4054 31.9912H23.4934C21.9488 31.9912 20.4674 31.3608 19.3752 30.2387C18.283 29.1166 17.6694 27.5947 17.6694 26.0078H20.5814C20.5814 26.8012 20.8882 27.5622 21.4343 28.1232C21.9804 28.6843 22.7211 28.9995 23.4934 28.9995H26.4054C27.1777 28.9995 27.9184 28.6843 28.4645 28.1232C29.0106 27.5622 29.3174 26.8012 29.3174 26.0078C29.3174 25.2143 29.0106 24.4534 28.4645 23.8923C27.9184 23.3312 27.1777 23.016 26.4054 23.016H23.4934C21.9488 23.016 20.4674 22.3857 19.3752 21.2635C18.283 20.1414 17.6694 18.6195 17.6694 17.0326Z" fill="white"/>
</svg>
