<svg width="54" height="30" viewBox="0 0 54 30" fill="none" xmlns="http://www.w3.org/2000/svg">
<path d="M27.1253 0.338867C12.2154 0.338867 0.536011 6.67316 0.536011 14.7602C0.536011 22.8472 12.2154 29.1815 27.1253 29.1815C42.0353 29.1815 53.7146 22.8472 53.7146 14.7602C53.7146 6.67316 42.0353 0.338867 27.1253 0.338867ZM24.3645 4.7762H27.2671L26.3454 9.21353H28.9378C30.5819 9.21353 31.6854 9.44427 32.3147 10.0189C32.9284 10.5869 33.1146 11.5187 32.8686 12.7878L31.7164 18.0882H28.765L29.8264 13.1872C29.9549 12.5149 29.9039 12.0468 29.6779 11.8005C29.4541 11.5542 28.96 11.4322 28.2199 11.4322H25.8956L24.493 18.0882H21.5859L24.3645 4.7762ZM11.6149 9.21353H17.5222C20.3384 9.21353 22.0446 11.1038 21.3776 13.9238C20.6021 17.2007 18.5281 18.0882 14.7081 18.0882H12.8823L12.304 21.4162H9.3681L11.6149 9.21353ZM34.8805 9.21353H40.7878C43.6041 9.21353 45.3102 11.1038 44.6433 13.9238C43.8677 17.2007 41.7916 18.0882 37.9738 18.0882H36.148L35.5697 21.4162H32.6337L34.8805 9.21353ZM14.1298 11.4322L13.2945 15.8695H15.1889C16.8286 15.8695 18.3531 15.6832 18.6079 13.236C18.7032 12.2864 18.3088 11.4322 16.4143 11.4322H14.1298ZM37.3955 11.4322L36.5601 15.8695H38.4546C40.0943 15.8695 41.6187 15.6832 41.8735 13.236C41.9688 12.2864 41.5766 11.4322 39.6799 11.4322H37.3955Z" fill="white"/>
</svg>
