<svg width="34" height="35" viewBox="0 0 34 35" fill="none" xmlns="http://www.w3.org/2000/svg">
<path d="M7.00049 27.3384H3.62555C2.73046 27.3384 1.87203 26.9828 1.23911 26.3499C0.606183 25.717 0.25061 24.8585 0.25061 23.9635V12.7137C0.25061 11.8186 0.606183 10.9601 1.23911 10.3272C1.87203 9.69428 2.73046 9.33871 3.62555 9.33871H18.2503V7.08875H16.0003V4.83879H13.7504V7.08875H9.25045V3.71381C9.25045 2.81872 9.60603 1.96029 10.2389 1.32736C10.8719 0.69444 11.7303 0.338867 12.6254 0.338867H21.6252C22.5203 0.338867 23.3788 0.69444 24.0117 1.32736C24.6446 1.96029 25.0002 2.81872 25.0002 3.71381V14.9636C25.0002 15.262 24.8817 15.5481 24.6707 15.7591C24.4597 15.9701 24.1736 16.0886 23.8752 16.0886H10.3754C9.48034 16.0886 8.62191 16.4442 7.98899 17.0771C7.35607 17.71 7.00049 18.5684 7.00049 19.4635V27.3384Z" fill="white"/>
<path d="M27.2501 7.08875V14.9636C27.2501 15.8587 26.8946 16.7171 26.2616 17.3501C25.6287 17.983 24.7703 18.3386 23.8752 18.3386H10.3754C10.0771 18.3386 9.79093 18.4571 9.57995 18.6681C9.36898 18.879 9.25045 19.1652 9.25045 19.4635V30.7133C9.25045 31.6084 9.60603 32.4669 10.2389 33.0998C10.8719 33.7327 11.7303 34.0883 12.6254 34.0883H21.6252C22.5203 34.0883 23.3788 33.7327 24.0117 33.0998C24.6446 32.4669 25.0002 31.6084 25.0002 30.7133V27.3384H20.5003V29.5884H18.2503V27.3384H16.0003V25.0884H30.6251C31.5202 25.0884 32.3786 24.7329 33.0115 24.0999C33.6444 23.467 34 22.6086 34 21.7135V10.4637C34 9.5686 33.6444 8.71017 33.0115 8.07725C32.3786 7.44432 31.5202 7.08875 30.6251 7.08875H27.2501Z" fill="white"/>
</svg>
