<svg width="48" height="43" viewBox="0 0 48 43" fill="none" xmlns="http://www.w3.org/2000/svg">
<path d="M29.5447 30.6403C28.359 32.3262 27.067 33.9348 25.6764 35.4563C29.3809 39.05 32.8241 40.7329 34.735 39.628C36.6459 38.5252 36.9094 34.7012 35.6495 29.6992C33.7607 30.1199 31.7103 30.441 29.5447 30.6403ZM26.6441 30.8307C24.9656 30.9002 23.285 30.9002 21.6066 30.8307C22.4392 31.9201 23.285 32.9298 24.1242 33.8487C24.9656 32.9298 25.8093 31.9223 26.6441 30.8307ZM37.8039 13.3491C43.705 15.0408 47.56 17.8529 47.56 21.2474C47.56 24.6418 43.7072 27.4539 37.8062 29.1456C39.2897 35.102 38.7804 39.845 35.8421 41.5411C32.9038 43.2394 28.5417 41.3086 24.1242 37.0439C19.709 41.3064 15.3469 43.2394 12.4086 41.5411C9.46801 39.845 8.96095 35.102 10.4445 29.1456C4.54349 27.4539 0.690674 24.6418 0.690674 21.2474C0.690674 17.8529 4.54349 15.0408 10.4445 13.3491C8.96095 7.39271 9.47023 2.64975 12.4086 0.951414C15.3469 -0.744712 19.709 1.18613 24.1242 5.4508C28.5417 1.18613 32.9038 -0.744712 35.8421 0.951414C38.7804 2.64975 39.2897 7.39271 37.8062 13.3491M35.6517 12.7999C36.9138 7.7957 36.6481 3.97388 34.7372 2.86897C32.8263 1.76626 29.3831 3.4491 25.6809 7.04285C27.0704 8.56454 28.3617 10.1731 29.547 11.8589C31.7125 12.0582 33.7629 12.377 35.6517 12.7999ZM12.6012 29.6948C11.3413 34.699 11.6048 38.5208 13.5179 39.6235C15.4288 40.7262 18.872 39.0456 22.5742 35.4519C21.1843 33.9297 19.893 32.3204 18.7081 30.6336C16.6553 30.4501 14.6162 30.1358 12.6034 29.6926M21.611 11.664C23.2895 11.5946 24.9701 11.5946 26.6485 11.664C25.8509 10.6243 25.0086 9.61958 24.1242 8.65262C23.2828 9.57376 22.4414 10.5835 21.6066 11.6729M18.7059 11.8655C19.8908 10.1795 21.1821 8.57092 22.572 7.0495C18.8698 3.45353 15.4266 1.77069 13.5179 2.87339C11.607 3.97831 11.3413 7.80235 12.6034 12.8044C14.4922 12.3837 16.5426 12.0648 18.7081 11.8633M28.318 28.5146C29.895 26.2015 31.2968 23.7738 32.5119 21.2518C31.2976 18.7298 29.8965 16.3021 28.3203 13.989C25.529 13.7801 22.7261 13.7801 19.9348 13.989C18.3571 16.302 16.9545 18.7297 15.7388 21.2518C16.954 23.7737 18.3558 26.2014 19.9326 28.5146C22.7239 28.7232 25.5268 28.7232 28.318 28.5146ZM31.1634 28.2223C32.5251 28.0451 33.8205 27.8193 35.0383 27.5514C34.6401 26.302 34.188 25.0704 33.6832 23.8602C32.9044 25.3483 32.0645 26.8035 31.1656 28.2223M17.0895 14.2791C15.7277 14.4562 14.4324 14.6843 13.2145 14.9522C13.591 16.139 14.0449 17.3746 14.5719 18.6434C15.3506 17.1553 16.1905 15.7 17.0895 14.2813M13.2145 27.5536C14.4324 27.8215 15.7277 28.0474 17.0895 28.2245C16.1906 26.8058 15.3506 25.3505 14.5719 23.8624C14.0664 25.0726 13.6135 26.3042 13.2145 27.5536ZM11.049 27.0111C11.6291 25.1644 12.3776 23.2291 13.2854 21.254C12.4183 19.3845 11.6713 17.4615 11.049 15.4969C6.08683 16.9052 2.90715 19.0486 2.90715 21.254C2.90715 23.4594 6.08683 25.6006 11.049 27.0111ZM35.0405 14.9522C33.7592 14.6719 32.4664 14.4473 31.1656 14.2791C32.0645 15.6978 32.9044 17.1531 33.6832 18.6412C34.2102 17.3746 34.6619 16.139 35.0405 14.9522ZM37.2039 15.4947C36.6282 17.3414 35.8753 19.2767 34.9675 21.2518C35.8753 23.2269 36.6282 25.1622 37.2039 27.0089C42.1683 25.5984 45.3479 23.4572 45.3479 21.2518C45.3479 19.0464 42.1683 16.9052 37.2039 15.4947ZM24.1242 25.4124C23.5664 25.4306 23.0107 25.3364 22.49 25.1355C21.9693 24.9346 21.4943 24.6311 21.0933 24.2429C20.6923 23.8548 20.3734 23.39 20.1556 22.8761C19.9379 22.3623 19.8257 21.8099 19.8257 21.2518C19.8257 20.6937 19.9379 20.1413 20.1556 19.6274C20.3734 19.1136 20.6923 18.6488 21.0933 18.2606C21.4943 17.8725 21.9693 17.5689 22.49 17.368C23.0107 17.1671 23.5664 17.073 24.1242 17.0912C25.2042 17.1264 26.2281 17.5802 26.9796 18.3566C27.7311 19.133 28.1513 20.1712 28.1513 21.2518C28.1513 22.3323 27.7311 23.3705 26.9796 24.1469C26.2281 24.9234 25.2042 25.3771 24.1242 25.4124Z" fill="white"/>
</svg>
