<svg width="37" height="36" viewBox="0 0 37 36" fill="none" xmlns="http://www.w3.org/2000/svg">
<path d="M10.5541 0.338867H25.6965C31.465 0.338867 36.1519 4.90862 36.1519 10.5329V25.2968C36.1519 28.0004 35.0504 30.5933 33.0896 32.5051C31.1288 34.4168 28.4694 35.4908 25.6965 35.4908H10.5541C4.78556 35.4908 0.0986328 30.9211 0.0986328 25.2968V10.5329C0.0986328 7.8293 1.20019 5.2364 3.16097 3.32464C5.12175 1.41288 7.78113 0.338867 10.5541 0.338867ZM27.5893 6.49046C28.1869 6.49046 28.76 6.72193 29.1826 7.13395C29.6052 7.54597 29.8426 8.10478 29.8426 8.68746C29.8426 9.27014 29.6052 9.82896 29.1826 10.241C28.76 10.653 28.1869 10.8845 27.5893 10.8845C26.9917 10.8845 26.4185 10.653 25.9959 10.241C25.5734 9.82896 25.3359 9.27014 25.3359 8.68746C25.3359 8.10478 25.5734 7.54597 25.9959 7.13395C26.4185 6.72193 26.9917 6.49046 27.5893 6.49046ZM18.1253 9.12686C20.5158 9.12686 22.8083 10.0527 24.4987 11.7008C26.189 13.3489 27.1386 15.5841 27.1386 17.9149C27.1386 20.2456 26.189 22.4808 24.4987 24.1289C22.8083 25.777 20.5158 26.7029 18.1253 26.7029C15.7348 26.7029 13.4422 25.777 11.7519 24.1289C10.0616 22.4808 9.11196 20.2456 9.11196 17.9149C9.11196 15.5841 10.0616 13.3489 11.7519 11.7008C13.4422 10.0527 15.7348 9.12686 18.1253 9.12686ZM18.1253 12.6421C16.691 12.6421 15.3155 13.1976 14.3013 14.1864C13.2871 15.1753 12.7173 16.5164 12.7173 17.9149C12.7173 19.3133 13.2871 20.6544 14.3013 21.6433C15.3155 22.6321 16.691 23.1877 18.1253 23.1877C19.5596 23.1877 20.9351 22.6321 21.9493 21.6433C22.9635 20.6544 23.5333 19.3133 23.5333 17.9149C23.5333 16.5164 22.9635 15.1753 21.9493 14.1864C20.9351 13.1976 19.5596 12.6421 18.1253 12.6421Z" fill="white"/>
<path d="M27.5891 6.49051C28.1868 6.49051 28.7599 6.72198 29.1825 7.134C29.6051 7.54601 29.8425 8.10483 29.8425 8.68751C29.8425 9.27019 29.6051 9.829 29.1825 10.241C28.7599 10.653 28.1868 10.8845 27.5891 10.8845C26.9915 10.8845 26.4184 10.653 25.9958 10.241C25.5732 9.829 25.3358 9.27019 25.3358 8.68751C25.3358 8.10483 25.5732 7.54601 25.9958 7.134C26.4184 6.72198 26.9915 6.49051 27.5891 6.49051ZM18.1251 9.12691C20.5156 9.12691 22.8082 10.0528 24.4985 11.7009C26.1889 13.3489 27.1385 15.5842 27.1385 17.9149C27.1385 20.2456 26.1889 22.4809 24.4985 24.129C22.8082 25.777 20.5156 26.7029 18.1251 26.7029C15.7347 26.7029 13.4421 25.777 11.7518 24.129C10.0614 22.4809 9.11182 20.2456 9.11182 17.9149C9.11182 15.5842 10.0614 13.3489 11.7518 11.7009C13.4421 10.0528 15.7347 9.12691 18.1251 9.12691ZM18.1251 12.6421C16.6909 12.6421 15.3153 13.1976 14.3011 14.1865C13.2869 15.1753 12.7171 16.5165 12.7171 17.9149C12.7171 19.3133 13.2869 20.6545 14.3011 21.6433C15.3153 22.6322 16.6909 23.1877 18.1251 23.1877C19.5594 23.1877 20.935 22.6322 21.9492 21.6433C22.9634 20.6545 23.5331 19.3133 23.5331 17.9149C23.5331 16.5165 22.9634 15.1753 21.9492 14.1865C20.935 13.1976 19.5594 12.6421 18.1251 12.6421Z" fill="#2E6EFE"/>
</svg>
