<svg width="32" height="32" viewBox="0 0 32 32" fill="none" xmlns="http://www.w3.org/2000/svg">
<path fill-rule="evenodd" clip-rule="evenodd" d="M2.27701 2.26383C3.50954 1.0313 5.18121 0.338867 6.92427 0.338867H25.3265C27.0695 0.338867 28.7412 1.0313 29.9737 2.26383C31.2063 3.49636 31.8987 5.16803 31.8987 6.91109V25.3133C31.8987 27.0564 31.2063 28.728 29.9737 29.9606C28.7412 31.1931 27.0695 31.8855 25.3265 31.8855H6.92427C5.18121 31.8855 3.50954 31.1931 2.27701 29.9606C1.04448 28.728 0.352051 27.0564 0.352051 25.3133V6.91109C0.352051 5.16803 1.04448 3.49636 2.27701 2.26383ZM24.012 8.22553H8.23871C7.8901 8.22553 7.55577 8.36402 7.30926 8.61052C7.06276 8.85703 6.92427 9.19136 6.92427 9.53997C6.92427 9.88859 7.06276 10.2229 7.30926 10.4694C7.55577 10.7159 7.8901 10.8544 8.23871 10.8544H24.012C24.3607 10.8544 24.695 10.7159 24.9415 10.4694C25.188 10.2229 25.3265 9.88859 25.3265 9.53997C25.3265 9.19136 25.188 8.85703 24.9415 8.61052C24.695 8.36402 24.3607 8.22553 24.012 8.22553ZM9.25 18.9439C10.5903 18.9439 11.6768 17.8574 11.6768 16.5171C11.6768 15.1768 10.5903 14.0902 9.25 14.0902C7.9097 14.0902 6.82317 15.1768 6.82317 16.5171C6.82317 17.8574 7.9097 18.9439 9.25 18.9439Z" fill="white"/>
</svg>
