<svg width="37" height="37" viewBox="0 0 37 37" fill="none" xmlns="http://www.w3.org/2000/svg">
<path d="M18.041 0C8.10042 0 0 8.10042 0 18.041C0 27.9816 8.10042 36.082 18.041 36.082C27.9816 36.082 36.082 27.9816 36.082 18.041C36.082 8.10042 27.9816 0 18.041 0ZM1.82214 18.041C1.82214 15.6957 2.32729 13.4586 3.22934 11.438L10.9689 32.6362C5.55663 30.0022 1.82214 24.4636 1.82214 18.041ZM18.041 34.2599C16.4534 34.2599 14.9199 34.0254 13.4586 33.5924L18.3297 19.4482L23.309 33.1053C23.3451 33.1774 23.3812 33.2676 23.4172 33.3218C21.7394 33.9352 19.9353 34.2599 18.041 34.2599ZM20.2781 10.4277C21.2523 10.3736 22.1363 10.2653 22.1363 10.2653C23.0023 10.1571 22.9121 8.87618 22.0281 8.9303C22.0281 8.9303 19.3941 9.12875 17.6982 9.12875C16.1106 9.12875 13.4225 8.9303 13.4225 8.9303C12.5565 8.89422 12.4483 10.2293 13.3323 10.2834C13.3323 10.2834 14.1622 10.3916 15.0282 10.4457L17.5539 17.3735L13.9998 28.0177L8.10042 10.4277C9.07463 10.3916 9.95864 10.2834 9.95864 10.2834C10.8246 10.1751 10.7344 8.89422 9.8504 8.94834C9.8504 8.94834 7.21641 9.1468 5.52055 9.1468C5.21385 9.1468 4.85303 9.1468 4.47417 9.12875C7.39682 4.72675 12.3761 1.82214 18.041 1.82214C22.2626 1.82214 26.1053 3.42779 28.9919 6.07982C28.9197 6.07982 28.8476 6.06178 28.7754 6.06178C27.1878 6.06178 26.0512 7.45094 26.0512 8.94834C26.0512 10.2834 26.827 11.42 27.6388 12.755C28.2522 13.8375 28.9739 15.2266 28.9739 17.2292C28.9739 18.6183 28.4326 20.224 27.7471 22.4791L26.1234 27.8914L20.2781 10.4277ZM32.2754 10.2653C34.3008 13.9741 34.7988 18.327 33.6633 22.3973C32.5277 26.4677 29.8484 29.9342 26.1956 32.0589L31.1568 17.7343C32.0769 15.4251 32.3836 13.5668 32.3836 11.9251C32.3836 11.3298 32.3475 10.7705 32.2754 10.2653Z" fill="#52525B"/>
</svg>
